# xmcd
#
# Track frame offsets:
#	150
#	4882
#	20405
#	46740
#	64447
#	79595
#	95537
#	114112
#	136455
#	155822
#	175067
#
# Disc length: 2578 seconds
#
# Revision: 1
# Processed by: cddbd v1.5.1PL0 Copyright (c) Steve Scherf et al.
# Submitted via: CDex 1.50Beta5
#
DISCID=860a100b
DTITLE=財津和夫 - PRIVATE MOON
DYEAR=1999
DGENRE=
TTITLE0=プロローグ
TTITLE1=PRIVATE MOON
TTITLE2=夢の鍵
TTITLE3=見えないパラダイス
TTITLE4=ここまでおいで
TTITLE5=バラ色のドア
TTITLE6=あなたをください
TTITLE7=あなたの知らないこと
TTITLE8=どこまでも追いかけて
TTITLE9=この世の端でも
TTITLE10=GOAL
EXTD=
EXTT0=
EXTT1=
EXTT2=
EXTT3=
EXTT4=
EXTT5=
EXTT6=
EXTT7=
EXTT8=
EXTT9=
EXTT10=
PLAYORDER=
